<mxfile host="app.diagrams.net" agent="Mozilla/5.0 (Windows NT 10.0; Win64; x64) AppleWebKit/537.36 (KHTML, like Gecko) Chrome/130.0.0.0 Safari/537.36" version="24.8.4">
  <diagram name="Page-1" id="VvrAad0TclVO9MmFzOiC">
    <mxGraphModel dx="1050" dy="575" grid="1" gridSize="10" guides="1" tooltips="1" connect="1" arrows="1" fold="1" page="1" pageScale="1" pageWidth="850" pageHeight="1100" math="0" shadow="0">
      <root>
        <mxCell id="0" />
        <mxCell id="1" parent="0" />
        <mxCell id="aDpUIm4KvXxxgzdLeEY6-3" value="AWS Cloud" style="points=[[0,0],[0.25,0],[0.5,0],[0.75,0],[1,0],[1,0.25],[1,0.5],[1,0.75],[1,1],[0.75,1],[0.5,1],[0.25,1],[0,1],[0,0.75],[0,0.5],[0,0.25]];outlineConnect=0;gradientColor=none;html=1;whiteSpace=wrap;fontSize=12;fontStyle=0;container=1;pointerEvents=0;collapsible=0;recursiveResize=0;shape=mxgraph.aws4.group;grIcon=mxgraph.aws4.group_aws_cloud_alt;strokeColor=#232F3E;fillColor=none;verticalAlign=top;align=left;spacingLeft=30;fontColor=#232F3E;dashed=0;" vertex="1" parent="1">
          <mxGeometry x="110" y="80" width="620" height="380" as="geometry" />
        </mxCell>
        <mxCell id="aDpUIm4KvXxxgzdLeEY6-70" style="edgeStyle=orthogonalEdgeStyle;rounded=1;orthogonalLoop=1;jettySize=auto;html=1;curved=0;strokeColor=default;flowAnimation=1;" edge="1" parent="aDpUIm4KvXxxgzdLeEY6-3" source="aDpUIm4KvXxxgzdLeEY6-21" target="aDpUIm4KvXxxgzdLeEY6-69">
          <mxGeometry relative="1" as="geometry" />
        </mxCell>
        <mxCell id="aDpUIm4KvXxxgzdLeEY6-21" value="" style="sketch=0;points=[[0,0,0],[0.25,0,0],[0.5,0,0],[0.75,0,0],[1,0,0],[0,1,0],[0.25,1,0],[0.5,1,0],[0.75,1,0],[1,1,0],[0,0.25,0],[0,0.5,0],[0,0.75,0],[1,0.25,0],[1,0.5,0],[1,0.75,0]];outlineConnect=0;fontColor=#232F3E;fillColor=#8C4FFF;strokeColor=#ffffff;dashed=0;verticalLabelPosition=bottom;verticalAlign=top;align=center;html=1;fontSize=12;fontStyle=0;aspect=fixed;shape=mxgraph.aws4.resourceIcon;resIcon=mxgraph.aws4.cloudfront;" vertex="1" parent="aDpUIm4KvXxxgzdLeEY6-3">
          <mxGeometry x="241.5" y="60" width="38" height="38" as="geometry" />
        </mxCell>
        <mxCell id="aDpUIm4KvXxxgzdLeEY6-15" value="" style="sketch=0;points=[[0,0,0],[0.25,0,0],[0.5,0,0],[0.75,0,0],[1,0,0],[0,1,0],[0.25,1,0],[0.5,1,0],[0.75,1,0],[1,1,0],[0,0.25,0],[0,0.5,0],[0,0.75,0],[1,0.25,0],[1,0.5,0],[1,0.75,0]];outlineConnect=0;fontColor=#232F3E;fillColor=#8C4FFF;strokeColor=#ffffff;dashed=0;verticalLabelPosition=bottom;verticalAlign=top;align=center;html=1;fontSize=12;fontStyle=0;aspect=fixed;shape=mxgraph.aws4.resourceIcon;resIcon=mxgraph.aws4.route_53;" vertex="1" parent="aDpUIm4KvXxxgzdLeEY6-3">
          <mxGeometry x="146.5" y="60" width="38" height="38" as="geometry" />
        </mxCell>
        <mxCell id="aDpUIm4KvXxxgzdLeEY6-22" style="edgeStyle=orthogonalEdgeStyle;rounded=1;orthogonalLoop=1;jettySize=auto;html=1;curved=0;strokeColor=default;flowAnimation=1;" edge="1" parent="aDpUIm4KvXxxgzdLeEY6-3" source="aDpUIm4KvXxxgzdLeEY6-15" target="aDpUIm4KvXxxgzdLeEY6-21">
          <mxGeometry relative="1" as="geometry" />
        </mxCell>
        <mxCell id="aDpUIm4KvXxxgzdLeEY6-19" value="HostedZone" style="text;html=1;align=center;verticalAlign=middle;whiteSpace=wrap;rounded=0;" vertex="1" parent="aDpUIm4KvXxxgzdLeEY6-3">
          <mxGeometry x="135.5" y="93" width="60" height="30" as="geometry" />
        </mxCell>
        <mxCell id="aDpUIm4KvXxxgzdLeEY6-35" value="" style="sketch=0;points=[[0,0,0],[0.25,0,0],[0.5,0,0],[0.75,0,0],[1,0,0],[0,1,0],[0.25,1,0],[0.5,1,0],[0.75,1,0],[1,1,0],[0,0.25,0],[0,0.5,0],[0,0.75,0],[1,0.25,0],[1,0.5,0],[1,0.75,0]];outlineConnect=0;fontColor=#232F3E;fillColor=#7AA116;strokeColor=#ffffff;dashed=0;verticalLabelPosition=bottom;verticalAlign=top;align=center;html=1;fontSize=12;fontStyle=0;aspect=fixed;shape=mxgraph.aws4.resourceIcon;resIcon=mxgraph.aws4.s3;" vertex="1" parent="aDpUIm4KvXxxgzdLeEY6-3">
          <mxGeometry x="231.5" y="172" width="58" height="58" as="geometry" />
        </mxCell>
        <mxCell id="aDpUIm4KvXxxgzdLeEY6-60" style="edgeStyle=orthogonalEdgeStyle;rounded=1;orthogonalLoop=1;jettySize=auto;html=1;entryX=0.5;entryY=0;entryDx=0;entryDy=0;curved=0;strokeColor=default;flowAnimation=1;" edge="1" parent="aDpUIm4KvXxxgzdLeEY6-3" source="aDpUIm4KvXxxgzdLeEY6-34" target="aDpUIm4KvXxxgzdLeEY6-59">
          <mxGeometry relative="1" as="geometry" />
        </mxCell>
        <mxCell id="aDpUIm4KvXxxgzdLeEY6-34" value="" style="sketch=0;points=[[0,0,0],[0.25,0,0],[0.5,0,0],[0.75,0,0],[1,0,0],[0,1,0],[0.25,1,0],[0.5,1,0],[0.75,1,0],[1,1,0],[0,0.25,0],[0,0.5,0],[0,0.75,0],[1,0.25,0],[1,0.5,0],[1,0.75,0]];outlineConnect=0;fontColor=#232F3E;fillColor=#DD344C;strokeColor=#ffffff;dashed=0;verticalLabelPosition=bottom;verticalAlign=top;align=center;html=1;fontSize=12;fontStyle=0;aspect=fixed;shape=mxgraph.aws4.resourceIcon;resIcon=mxgraph.aws4.certificate_manager_3;" vertex="1" parent="aDpUIm4KvXxxgzdLeEY6-3">
          <mxGeometry x="351.5" y="10" width="38" height="38" as="geometry" />
        </mxCell>
        <mxCell id="aDpUIm4KvXxxgzdLeEY6-41" value="" style="sketch=0;points=[[0,0,0],[0.25,0,0],[0.5,0,0],[0.75,0,0],[1,0,0],[0,1,0],[0.25,1,0],[0.5,1,0],[0.75,1,0],[1,1,0],[0,0.25,0],[0,0.5,0],[0,0.75,0],[1,0.25,0],[1,0.5,0],[1,0.75,0]];outlineConnect=0;fontColor=#232F3E;fillColor=#8C4FFF;strokeColor=#ffffff;dashed=0;verticalLabelPosition=bottom;verticalAlign=top;align=center;html=1;fontSize=12;fontStyle=0;aspect=fixed;shape=mxgraph.aws4.resourceIcon;resIcon=mxgraph.aws4.api_gateway;" vertex="1" parent="aDpUIm4KvXxxgzdLeEY6-3">
          <mxGeometry x="341.5" y="110" width="58" height="58" as="geometry" />
        </mxCell>
        <mxCell id="aDpUIm4KvXxxgzdLeEY6-46" style="edgeStyle=orthogonalEdgeStyle;rounded=1;orthogonalLoop=1;jettySize=auto;html=1;entryX=0.75;entryY=0;entryDx=0;entryDy=0;entryPerimeter=0;curved=0;strokeColor=default;flowAnimation=1;" edge="1" parent="aDpUIm4KvXxxgzdLeEY6-3" source="aDpUIm4KvXxxgzdLeEY6-21" target="aDpUIm4KvXxxgzdLeEY6-41">
          <mxGeometry relative="1" as="geometry" />
        </mxCell>
        <mxCell id="aDpUIm4KvXxxgzdLeEY6-50" style="edgeStyle=orthogonalEdgeStyle;rounded=1;orthogonalLoop=1;jettySize=auto;html=1;curved=0;strokeColor=default;flowAnimation=1;" edge="1" parent="aDpUIm4KvXxxgzdLeEY6-3" source="aDpUIm4KvXxxgzdLeEY6-28" target="aDpUIm4KvXxxgzdLeEY6-29">
          <mxGeometry relative="1" as="geometry" />
        </mxCell>
        <mxCell id="aDpUIm4KvXxxgzdLeEY6-76" style="edgeStyle=orthogonalEdgeStyle;rounded=1;orthogonalLoop=1;jettySize=auto;html=1;curved=0;strokeColor=default;flowAnimation=1;" edge="1" parent="aDpUIm4KvXxxgzdLeEY6-3" source="aDpUIm4KvXxxgzdLeEY6-28" target="aDpUIm4KvXxxgzdLeEY6-72">
          <mxGeometry relative="1" as="geometry" />
        </mxCell>
        <mxCell id="aDpUIm4KvXxxgzdLeEY6-28" value="" style="sketch=0;points=[[0,0,0],[0.25,0,0],[0.5,0,0],[0.75,0,0],[1,0,0],[0,1,0],[0.25,1,0],[0.5,1,0],[0.75,1,0],[1,1,0],[0,0.25,0],[0,0.5,0],[0,0.75,0],[1,0.25,0],[1,0.5,0],[1,0.75,0]];outlineConnect=0;fontColor=#232F3E;fillColor=#ED7100;strokeColor=#ffffff;dashed=0;verticalLabelPosition=bottom;verticalAlign=top;align=center;html=1;fontSize=12;fontStyle=0;aspect=fixed;shape=mxgraph.aws4.resourceIcon;resIcon=mxgraph.aws4.lambda;" vertex="1" parent="aDpUIm4KvXxxgzdLeEY6-3">
          <mxGeometry x="341.5" y="210" width="58" height="58" as="geometry" />
        </mxCell>
        <mxCell id="aDpUIm4KvXxxgzdLeEY6-49" style="edgeStyle=orthogonalEdgeStyle;rounded=1;orthogonalLoop=1;jettySize=auto;html=1;entryX=0.5;entryY=0;entryDx=0;entryDy=0;entryPerimeter=0;curved=0;strokeColor=default;flowAnimation=1;" edge="1" parent="aDpUIm4KvXxxgzdLeEY6-3" source="aDpUIm4KvXxxgzdLeEY6-41" target="aDpUIm4KvXxxgzdLeEY6-28">
          <mxGeometry relative="1" as="geometry" />
        </mxCell>
        <mxCell id="aDpUIm4KvXxxgzdLeEY6-29" value="Amazon DynamoDB" style="sketch=0;outlineConnect=0;fontColor=#232F3E;gradientColor=none;strokeColor=#ffffff;fillColor=#232F3E;dashed=0;verticalLabelPosition=middle;verticalAlign=bottom;align=center;html=1;whiteSpace=wrap;fontSize=10;fontStyle=1;spacing=3;shape=mxgraph.aws4.productIcon;prIcon=mxgraph.aws4.dynamodb;" vertex="1" parent="aDpUIm4KvXxxgzdLeEY6-3">
          <mxGeometry x="292.5" y="300" width="59" height="30" as="geometry" />
        </mxCell>
        <mxCell id="aDpUIm4KvXxxgzdLeEY6-52" value="S3 Website Bucket" style="text;html=1;align=center;verticalAlign=middle;whiteSpace=wrap;rounded=0;" vertex="1" parent="aDpUIm4KvXxxgzdLeEY6-3">
          <mxGeometry x="201" y="234" width="119" height="20" as="geometry" />
        </mxCell>
        <mxCell id="aDpUIm4KvXxxgzdLeEY6-53" value="DynamoDB" style="text;html=1;align=center;verticalAlign=middle;whiteSpace=wrap;rounded=0;" vertex="1" parent="aDpUIm4KvXxxgzdLeEY6-3">
          <mxGeometry x="292.5" y="351" width="60" height="30" as="geometry" />
        </mxCell>
        <mxCell id="aDpUIm4KvXxxgzdLeEY6-54" value="path:/api.devops-test.site/raffle" style="text;html=1;align=center;verticalAlign=middle;whiteSpace=wrap;rounded=0;" vertex="1" parent="aDpUIm4KvXxxgzdLeEY6-3">
          <mxGeometry x="361.5" y="168" width="178.75" height="30" as="geometry" />
        </mxCell>
        <mxCell id="aDpUIm4KvXxxgzdLeEY6-55" value="path:/api.devops-test.site/raffle/apply" style="text;html=1;align=center;verticalAlign=middle;whiteSpace=wrap;rounded=0;" vertex="1" parent="aDpUIm4KvXxxgzdLeEY6-3">
          <mxGeometry x="399.5" y="200" width="200.5" height="30" as="geometry" />
        </mxCell>
        <mxCell id="aDpUIm4KvXxxgzdLeEY6-56" value="path:/api.devops-test.site/raffle/draw" style="text;html=1;align=center;verticalAlign=middle;whiteSpace=wrap;rounded=0;" vertex="1" parent="aDpUIm4KvXxxgzdLeEY6-3">
          <mxGeometry x="390" y="250" width="220" height="20" as="geometry" />
        </mxCell>
        <mxCell id="aDpUIm4KvXxxgzdLeEY6-57" value="path:/api.devops-test.site/raffle/count" style="text;html=1;align=center;verticalAlign=middle;whiteSpace=wrap;rounded=0;" vertex="1" parent="aDpUIm4KvXxxgzdLeEY6-3">
          <mxGeometry x="399.5" y="224" width="200.5" height="30" as="geometry" />
        </mxCell>
        <mxCell id="aDpUIm4KvXxxgzdLeEY6-58" value="certificate manager" style="text;html=1;align=center;verticalAlign=middle;whiteSpace=wrap;rounded=0;" vertex="1" parent="aDpUIm4KvXxxgzdLeEY6-3">
          <mxGeometry x="315" y="40" width="111" height="30" as="geometry" />
        </mxCell>
        <mxCell id="aDpUIm4KvXxxgzdLeEY6-59" value="api.devops-test.site" style="text;html=1;align=center;verticalAlign=middle;whiteSpace=wrap;rounded=0;" vertex="1" parent="aDpUIm4KvXxxgzdLeEY6-3">
          <mxGeometry x="421" y="70" width="109" height="30" as="geometry" />
        </mxCell>
        <mxCell id="aDpUIm4KvXxxgzdLeEY6-61" style="edgeStyle=orthogonalEdgeStyle;rounded=1;orthogonalLoop=1;jettySize=auto;html=1;entryX=1;entryY=0.75;entryDx=0;entryDy=0;entryPerimeter=0;curved=0;strokeColor=default;flowAnimation=1;" edge="1" parent="aDpUIm4KvXxxgzdLeEY6-3" source="aDpUIm4KvXxxgzdLeEY6-59" target="aDpUIm4KvXxxgzdLeEY6-41">
          <mxGeometry relative="1" as="geometry">
            <Array as="points">
              <mxPoint x="476" y="154" />
            </Array>
          </mxGeometry>
        </mxCell>
        <mxCell id="aDpUIm4KvXxxgzdLeEY6-66" style="edgeStyle=orthogonalEdgeStyle;rounded=1;orthogonalLoop=1;jettySize=auto;html=1;entryX=0.5;entryY=0;entryDx=0;entryDy=0;entryPerimeter=0;curved=0;strokeColor=default;flowAnimation=1;" edge="1" parent="aDpUIm4KvXxxgzdLeEY6-3" source="aDpUIm4KvXxxgzdLeEY6-34" target="aDpUIm4KvXxxgzdLeEY6-21">
          <mxGeometry relative="1" as="geometry" />
        </mxCell>
        <mxCell id="aDpUIm4KvXxxgzdLeEY6-71" style="edgeStyle=orthogonalEdgeStyle;rounded=1;orthogonalLoop=1;jettySize=auto;html=1;curved=0;strokeColor=default;flowAnimation=1;" edge="1" parent="aDpUIm4KvXxxgzdLeEY6-3" source="aDpUIm4KvXxxgzdLeEY6-69" target="aDpUIm4KvXxxgzdLeEY6-35">
          <mxGeometry relative="1" as="geometry" />
        </mxCell>
        <mxCell id="aDpUIm4KvXxxgzdLeEY6-69" value="path:/" style="text;html=1;align=center;verticalAlign=middle;whiteSpace=wrap;rounded=0;" vertex="1" parent="aDpUIm4KvXxxgzdLeEY6-3">
          <mxGeometry x="236.5" y="120" width="48" height="20" as="geometry" />
        </mxCell>
        <mxCell id="aDpUIm4KvXxxgzdLeEY6-72" value="" style="outlineConnect=0;dashed=0;verticalLabelPosition=bottom;verticalAlign=top;align=center;html=1;shape=mxgraph.aws3.cloudwatch;fillColor=#759C3E;gradientColor=none;" vertex="1" parent="aDpUIm4KvXxxgzdLeEY6-3">
          <mxGeometry x="389.5" y="300" width="57.5" height="51" as="geometry" />
        </mxCell>
        <mxCell id="aDpUIm4KvXxxgzdLeEY6-77" value="CloudWatch" style="text;html=1;align=center;verticalAlign=middle;whiteSpace=wrap;rounded=0;" vertex="1" parent="aDpUIm4KvXxxgzdLeEY6-3">
          <mxGeometry x="387" y="351" width="60" height="30" as="geometry" />
        </mxCell>
        <mxCell id="aDpUIm4KvXxxgzdLeEY6-78" value="" style="sketch=0;outlineConnect=0;fontColor=#232F3E;gradientColor=none;fillColor=#DD344C;strokeColor=none;dashed=0;verticalLabelPosition=bottom;verticalAlign=top;align=center;html=1;fontSize=12;fontStyle=0;aspect=fixed;pointerEvents=1;shape=mxgraph.aws4.role;" vertex="1" parent="aDpUIm4KvXxxgzdLeEY6-3">
          <mxGeometry x="320" y="250" width="45.72" height="25.79" as="geometry" />
        </mxCell>
        <mxCell id="aDpUIm4KvXxxgzdLeEY6-9" value="" style="fillColor=#28A8E0;verticalLabelPosition=bottom;sketch=0;html=1;strokeColor=#ffffff;verticalAlign=top;align=center;points=[[0.145,0.145,0],[0.5,0,0],[0.855,0.145,0],[1,0.5,0],[0.855,0.855,0],[0.5,1,0],[0.145,0.855,0],[0,0.5,0]];pointerEvents=1;shape=mxgraph.cisco_safe.compositeIcon;bgIcon=ellipse;resIcon=mxgraph.cisco_safe.capability.dns;" vertex="1" parent="1">
          <mxGeometry x="322.5" width="43" height="43" as="geometry" />
        </mxCell>
        <mxCell id="aDpUIm4KvXxxgzdLeEY6-10" value="" style="sketch=0;outlineConnect=0;fontColor=#232F3E;gradientColor=none;fillColor=#232F3D;strokeColor=none;dashed=0;verticalLabelPosition=bottom;verticalAlign=top;align=center;html=1;fontSize=12;fontStyle=0;aspect=fixed;pointerEvents=1;shape=mxgraph.aws4.users;" vertex="1" parent="1">
          <mxGeometry x="460" y="6.5" width="30" height="30" as="geometry" />
        </mxCell>
        <mxCell id="aDpUIm4KvXxxgzdLeEY6-16" value="GoDaddy DNS" style="text;html=1;align=center;verticalAlign=middle;whiteSpace=wrap;rounded=0;" vertex="1" parent="1">
          <mxGeometry x="300" y="43" width="94.5" height="30" as="geometry" />
        </mxCell>
        <mxCell id="aDpUIm4KvXxxgzdLeEY6-18" style="edgeStyle=orthogonalEdgeStyle;rounded=1;orthogonalLoop=1;jettySize=auto;html=1;entryX=0.5;entryY=0;entryDx=0;entryDy=0;entryPerimeter=0;curved=0;strokeColor=default;flowAnimation=1;" edge="1" parent="1" source="aDpUIm4KvXxxgzdLeEY6-9" target="aDpUIm4KvXxxgzdLeEY6-15">
          <mxGeometry relative="1" as="geometry" />
        </mxCell>
        <mxCell id="aDpUIm4KvXxxgzdLeEY6-67" style="edgeStyle=orthogonalEdgeStyle;rounded=1;orthogonalLoop=1;jettySize=auto;html=1;entryX=1;entryY=0.5;entryDx=0;entryDy=0;entryPerimeter=0;curved=0;strokeColor=default;flowAnimation=1;" edge="1" parent="1" source="aDpUIm4KvXxxgzdLeEY6-10" target="aDpUIm4KvXxxgzdLeEY6-9">
          <mxGeometry relative="1" as="geometry" />
        </mxCell>
      </root>
    </mxGraphModel>
  </diagram>
</mxfile>
